<?xml version="1.0" standalone="no"?>
<!DOCTYPE svg PUBLIC "-//W3C//DTD SVG 20010904//EN"
 "http://www.w3.org/TR/2001/REC-SVG-20010904/DTD/svg10.dtd">
<svg version="1.0" xmlns="http://www.w3.org/2000/svg"
 width="1280.000000pt" height="1280.000000pt" viewBox="0 0 1280.000000 1280.000000"
 preserveAspectRatio="xMidYMid meet">
<metadata>
Created by potrace 1.15, written by Peter Selinger 2001-2017
</metadata>
<g transform="translate(0.000000,1280.000000) scale(0.100000,-0.100000)"
fill="#000000" stroke="none">
<path d="M8670 10794 c0 -5 -25 -112 -56 -239 -30 -126 -69 -291 -85 -365 -17
-74 -50 -218 -75 -320 -25 -102 -67 -282 -94 -400 -28 -118 -72 -312 -100
-430 -28 -118 -82 -350 -121 -515 -38 -165 -96 -412 -129 -550 -52 -221 -174
-742 -258 -1105 -16 -69 -67 -282 -112 -475 -45 -192 -98 -417 -117 -500 -18
-82 -65 -283 -103 -445 -39 -162 -95 -401 -125 -530 -30 -129 -80 -341 -110
-470 -31 -129 -59 -238 -64 -243 -18 -18 -129 -37 -222 -37 -186 0 -305 48
-609 245 -107 70 -287 181 -400 247 -345 202 -465 291 -535 396 -15 23 -43
108 -74 228 -55 209 -70 253 -132 376 -81 160 -168 278 -328 440 l-106 108 0
83 c-1 99 -11 126 -87 238 -32 47 -58 90 -58 95 0 5 27 26 60 48 90 57 150
129 185 221 38 99 57 113 132 97 30 -6 122 -42 206 -79 133 -59 160 -68 212
-68 49 0 67 5 100 27 63 43 78 78 85 191 l6 97 52 75 c61 88 69 115 48 172
-16 47 -11 53 45 53 19 0 40 10 55 25 24 24 25 30 18 78 -5 29 -8 70 -9 92 l0
40 55 11 c31 6 65 16 77 22 30 17 46 72 38 135 -7 60 -60 267 -109 430 -50
165 -51 180 -25 249 20 53 21 64 9 121 -6 34 -37 140 -68 236 l-57 174 46 41
c146 132 197 296 134 431 -71 149 -313 284 -635 353 -189 41 -333 54 -572 53
-495 -2 -856 -70 -1069 -201 -113 -69 -162 -129 -204 -249 -53 -151 -106 -628
-107 -951 0 -296 17 -368 151 -639 77 -156 85 -192 48 -216 -18 -12 -151 -32
-229 -35 -4 0 -16 -10 -27 -21 -16 -17 -19 -31 -15 -63 7 -50 -7 -90 -39 -111
-30 -19 -56 -23 -452 -74 -458 -58 -492 -73 -706 -308 -152 -167 -517 -570
-869 -958 -129 -143 -260 -287 -291 -320 -198 -213 -361 -459 -404 -607 -21
-73 -21 -179 0 -238 9 -25 30 -63 48 -85 82 -103 170 -160 486 -315 405 -201
471 -240 572 -340 128 -127 169 -229 169 -420 0 -130 -51 -389 -103 -525 -170
-443 -195 -675 -104 -942 l32 -96 75 -27 c126 -46 419 -175 538 -238 137 -72
246 -154 301 -226 23 -29 66 -109 96 -177 32 -71 69 -138 88 -157 66 -69 197
-79 552 -43 301 30 659 60 1069 90 l370 26 23 90 c32 128 80 363 97 480 18
119 23 203 36 555 10 276 26 384 80 565 12 39 26 87 32 108 6 21 17 41 24 44
8 3 107 -47 221 -110 369 -203 473 -258 733 -388 598 -298 828 -360 1072 -288
62 18 273 121 518 252 l105 56 130 -60 c72 -33 247 -115 390 -181 143 -66 294
-136 335 -155 41 -20 194 -90 340 -158 146 -67 299 -138 340 -158 41 -19 170
-78 285 -132 116 -53 266 -123 335 -155 69 -32 154 -72 190 -88 36 -17 143
-66 238 -110 94 -44 172 -79 172 -77 0 2 273 1092 606 2422 333 1330 625 2497
649 2593 24 96 260 1041 525 2098 265 1058 479 1927 476 1930 -3 3 -14 -1 -23
-10 -20 -16 -1 -17 -893 32 -190 11 -609 34 -895 50 -99 5 -270 14 -380 20
-110 5 -229 12 -265 15 -36 3 -193 12 -350 20 -157 8 -411 21 -565 30 -154 8
-340 17 -412 21 -77 4 -133 3 -133 -2z"/>
</g>
</svg>
