<?xml version="1.0" standalone="no"?>
<!DOCTYPE svg PUBLIC "-//W3C//DTD SVG 20010904//EN"
 "http://www.w3.org/TR/2001/REC-SVG-20010904/DTD/svg10.dtd">
<svg version="1.0" xmlns="http://www.w3.org/2000/svg"
 width="1280.000000pt" height="884.000000pt" viewBox="0 0 1280.000000 884.000000"
 preserveAspectRatio="xMidYMid meet">
<metadata>
Created by potrace 1.15, written by Peter Selinger 2001-2017
</metadata>
<g transform="translate(0.000000,884.000000) scale(0.100000,-0.100000)"
fill="#000000" stroke="none">
<path d="M5970 8834 c-626 -46 -1139 -182 -1499 -396 -79 -47 -131 -88 -206
-163 -109 -108 -151 -174 -181 -283 l-18 -63 -190 7 c-325 11 -710 -20 -971
-80 -494 -112 -794 -342 -837 -642 -29 -205 78 -433 285 -603 198 -164 409
-243 837 -311 498 -80 584 -99 640 -146 43 -36 41 -73 -8 -121 -97 -98 -219
-149 -502 -208 -411 -87 -481 -107 -600 -173 -36 -19 -90 -61 -120 -92 -56
-57 -122 -169 -135 -228 -19 -90 36 -175 149 -230 60 -29 120 -48 461 -148
239 -70 376 -158 432 -279 23 -51 28 -73 27 -145 0 -100 -19 -166 -99 -341
-59 -130 -105 -263 -132 -389 -28 -132 -25 -405 5 -522 77 -292 247 -513 516
-670 268 -157 669 -235 1073 -208 676 44 1072 205 1225 496 51 97 70 185 70
319 0 135 -17 235 -87 508 -77 302 -86 409 -41 496 76 147 369 152 911 17 197
-49 339 -70 419 -60 98 11 172 42 231 95 96 89 138 213 156 467 17 254 37 413
58 482 40 128 111 205 220 237 80 23 256 13 376 -21 297 -85 407 -103 564 -91
391 28 741 267 931 636 103 201 145 383 137 594 -12 309 -145 548 -396 713
-195 128 -415 189 -723 199 -383 13 -647 -58 -1124 -304 -420 -216 -596 -270
-846 -261 -148 6 -280 36 -382 87 -113 57 -142 126 -93 222 51 101 147 192
427 402 208 156 385 326 459 441 245 379 -22 650 -730 741 -120 16 -565 28
-689 19z"/>
<path d="M8973 8229 c-199 -34 -323 -153 -268 -259 37 -71 110 -79 223 -26
138 67 232 159 232 229 0 49 -82 74 -187 56z"/>
<path d="M7770 8073 c-68 -28 -116 -105 -125 -204 -5 -51 -2 -71 12 -99 17
-33 21 -35 65 -34 40 0 59 8 117 48 157 107 191 201 98 270 -28 20 -134 33
-167 19z"/>
<path d="M10630 6375 c-86 -39 -123 -106 -124 -223 -1 -77 1 -85 24 -104 32
-26 75 -19 147 24 81 49 149 118 164 166 10 36 9 45 -7 73 -38 64 -135 94
-204 64z"/>
<path d="M326 6234 c-127 -46 -149 -103 -56 -143 65 -28 94 -27 130 7 41 37
49 87 20 125 -24 30 -38 32 -94 11z"/>
<path d="M1450 6235 c-8 -2 -49 -9 -90 -15 -262 -42 -473 -146 -619 -306 -168
-183 -201 -425 -76 -549 122 -123 354 -92 617 82 l67 44 80 -21 c90 -23 246
-27 333 -9 93 19 212 83 279 150 86 86 131 183 132 283 1 130 -63 222 -198
286 -93 44 -192 60 -362 59 -81 -1 -155 -3 -163 -4z"/>
<path d="M83 5862 c-29 -4 -83 -58 -83 -82 0 -39 76 -53 130 -25 22 12 30 23
30 43 0 47 -30 72 -77 64z"/>
<path d="M904 5020 c-30 -12 -72 -65 -85 -109 -6 -21 -10 -72 -8 -114 4 -63 8
-80 28 -101 31 -33 57 -33 113 3 49 31 78 66 108 133 37 82 18 146 -53 179
-45 20 -70 22 -103 9z"/>
<path d="M9473 4245 c-89 -27 -204 -125 -280 -235 -42 -63 -115 -211 -147
-300 -53 -145 -104 -229 -189 -306 -104 -95 -233 -141 -418 -151 -186 -9 -286
5 -874 129 -68 14 -140 21 -225 22 -116 1 -129 -1 -175 -24 -124 -64 -132
-213 -31 -537 54 -170 68 -254 69 -388 0 -129 -14 -210 -59 -326 -47 -126
-122 -234 -319 -464 -150 -175 -196 -237 -244 -332 -95 -190 -74 -432 52 -598
109 -144 229 -205 401 -205 140 0 240 28 638 179 479 182 747 196 1050 53 198
-92 339 -223 473 -437 134 -215 239 -306 370 -321 140 -17 222 53 386 327 45
77 105 164 131 193 127 143 243 127 451 -61 322 -291 675 -350 961 -163 82 54
186 162 234 242 79 133 109 295 78 418 -50 193 -203 290 -495 310 -190 13
-259 36 -319 104 -84 96 -36 253 128 416 199 197 461 289 660 230 400 -117
483 -133 669 -128 116 3 144 7 188 27 155 69 199 232 128 475 -58 198 -229
353 -427 386 -100 17 -220 8 -483 -36 -190 -33 -242 -38 -380 -38 -134 0 -175
4 -250 23 -311 79 -578 316 -827 735 -183 309 -296 464 -440 602 -170 163
-338 225 -485 179z"/>
<path d="M2818 2951 c-107 -34 -189 -98 -204 -157 -10 -39 5 -94 33 -120 55
-51 172 -22 314 77 63 45 119 118 119 155 0 13 -10 32 -22 44 -18 17 -35 20
-102 19 -49 0 -103 -7 -138 -18z"/>
</g>
</svg>
